<svg width="345" height="214" viewBox="0 0 345 214" fill="none" xmlns="http://www.w3.org/2000/svg">
  <g clip-path="url(#clip0_1164_8736)">
    <path
      d="M13.5 45.2891C13.5 41.9948 13.7578 39.3451 14.2734 37.3398C14.7891 35.3346 15.5339 33.7305 16.5078 32.5273C17.5104 31.2956 18.8568 30.1354 20.5469 29.0469C22.8672 27.5573 24.5716 26.2253 25.6602 25.0508C26.7773 23.8763 27.3359 22.487 27.3359 20.8828C27.3359 19.3073 26.7773 18.0326 25.6602 17.0586C24.5716 16.056 23.2109 15.5547 21.5781 15.5547C20.4609 15.5547 19.4154 15.8125 18.4414 16.3281C17.4961 16.8438 16.7227 17.5742 16.1211 18.5195C15.5482 19.4648 15.2474 20.5391 15.2188 21.7422H0.09375C0.151042 17.5026 1.13932 13.9792 3.05859 11.1719C4.97786 8.33594 7.54167 6.25911 10.75 4.94141C13.987 3.59505 17.625 2.92188 21.6641 2.92188C26.0182 2.92188 29.8711 3.56641 33.2227 4.85547C36.6029 6.14453 39.2383 8.07813 41.1289 10.6563C43.0482 13.2057 44.0078 16.3281 44.0078 20.0234C44.0078 23.4896 43.1628 26.4115 41.4727 28.7891C39.7826 31.1667 37.3333 33.2865 34.125 35.1484C31.7474 36.5521 30.0286 37.9987 28.9687 39.4883C27.9375 40.9779 27.4219 42.9115 27.4219 45.2891V46.6641H13.5V45.2891ZM20.6328 66.9453C19.1146 66.9453 17.7109 66.5729 16.4219 65.8281C15.1328 65.0833 14.1159 64.0807 13.3711 62.8203C12.6263 61.5312 12.2682 60.1276 12.2969 58.6094C12.2682 57.1198 12.6263 55.7448 13.3711 54.4844C14.1159 53.224 15.1328 52.2214 16.4219 51.4766C17.7109 50.7318 19.1146 50.3594 20.6328 50.3594C22.0651 50.3594 23.4258 50.7318 24.7148 51.4766C26.0039 52.2214 27.0352 53.224 27.8086 54.4844C28.582 55.7448 28.9687 57.1198 28.9687 58.6094C28.9687 60.1276 28.582 61.5312 27.8086 62.8203C27.0352 64.0807 26.0039 65.0833 24.7148 65.8281C23.4258 66.5729 22.0651 66.9453 20.6328 66.9453ZM63.4091 45.2891C63.4091 41.9948 63.6669 39.3451 64.1825 37.3398C64.6981 35.3346 65.4429 33.7305 66.4169 32.5273C67.4195 31.2956 68.7658 30.1354 70.4559 29.0469C72.7762 27.5573 74.4807 26.2253 75.5692 25.0508C76.6864 23.8763 77.245 22.487 77.245 20.8828C77.245 19.3073 76.6864 18.0326 75.5692 17.0586C74.4807 16.056 73.12 15.5547 71.4872 15.5547C70.37 15.5547 69.3244 15.8125 68.3505 16.3281C67.4052 16.8438 66.6317 17.5742 66.0302 18.5195C65.4572 19.4648 65.1565 20.5391 65.1278 21.7422H50.0028C50.0601 17.5026 51.0484 13.9792 52.9677 11.1719C54.8869 8.33594 57.4507 6.25911 60.6591 4.94141C63.896 3.59505 67.5341 2.92188 71.5731 2.92188C75.9273 2.92188 79.7802 3.56641 83.1317 4.85547C86.5119 6.14453 89.1473 8.07813 91.038 10.6563C92.9572 13.2057 93.9169 16.3281 93.9169 20.0234C93.9169 23.4896 93.0718 26.4115 91.3817 28.7891C89.6916 31.1667 87.2424 33.2865 84.0341 35.1484C81.6565 36.5521 79.9377 37.9987 78.8778 39.4883C77.8466 40.9779 77.3309 42.9115 77.3309 45.2891V46.6641H63.4091V45.2891ZM70.5419 66.9453C69.0236 66.9453 67.62 66.5729 66.3309 65.8281C65.0419 65.0833 64.0249 64.0807 63.2802 62.8203C62.5354 61.5313 62.1773 60.1276 62.2059 58.6094C62.1773 57.1198 62.5354 55.7448 63.2802 54.4844C64.0249 53.224 65.0419 52.2214 66.3309 51.4766C67.62 50.7318 69.0236 50.3594 70.5419 50.3594C71.9742 50.3594 73.3348 50.7318 74.6239 51.4766C75.913 52.2214 76.9442 53.224 77.7177 54.4844C78.4911 55.7448 78.8778 57.1198 78.8778 58.6094C78.8778 60.1276 78.4911 61.5313 77.7177 62.8203C76.9442 64.0807 75.913 65.0833 74.6239 65.8281C73.3348 66.5729 71.9742 66.9453 70.5419 66.9453ZM113.318 45.2891C113.318 41.9948 113.576 39.3451 114.092 37.3398C114.607 35.3346 115.352 33.7305 116.326 32.5273C117.329 31.2956 118.675 30.1354 120.365 29.0469C122.685 27.5573 124.39 26.2253 125.478 25.0508C126.595 23.8763 127.154 22.487 127.154 20.8828C127.154 19.3073 126.595 18.0326 125.478 17.0586C124.39 16.056 123.029 15.5547 121.396 15.5547C120.279 15.5547 119.233 15.8125 118.26 16.3281C117.314 16.8438 116.541 17.5742 115.939 18.5195C115.366 19.4648 115.066 20.5391 115.037 21.7422H99.9119C99.9692 17.5026 100.957 13.9792 102.877 11.1719C104.796 8.33594 107.36 6.25911 110.568 4.94141C113.805 3.59505 117.443 2.92188 121.482 2.92188C125.836 2.92188 129.689 3.56641 133.041 4.85547C136.421 6.14453 139.056 8.07813 140.947 10.6563C142.866 13.2057 143.826 16.3281 143.826 20.0234C143.826 23.4896 142.981 26.4115 141.291 28.7891C139.601 31.1667 137.151 33.2865 133.943 35.1484C131.566 36.5521 129.847 37.9987 128.787 39.4883C127.756 40.9779 127.24 42.9115 127.24 45.2891V46.6641H113.318V45.2891ZM120.451 66.9453C118.933 66.9453 117.529 66.5729 116.24 65.8281C114.951 65.0833 113.934 64.0807 113.189 62.8203C112.444 61.5313 112.086 60.1276 112.115 58.6094C112.086 57.1198 112.444 55.7448 113.189 54.4844C113.934 53.224 114.951 52.2214 116.24 51.4766C117.529 50.7318 118.933 50.3594 120.451 50.3594C121.883 50.3594 123.244 50.7318 124.533 51.4766C125.822 52.2214 126.853 53.224 127.627 54.4844C128.4 55.7448 128.787 57.1198 128.787 58.6094C128.787 60.1276 128.4 61.5313 127.627 62.8203C126.853 64.0807 125.822 65.0833 124.533 65.8281C123.244 66.5729 121.883 66.9453 120.451 66.9453ZM213.136 45.2891C213.136 41.9948 213.394 39.3451 213.91 37.3398C214.425 35.3346 215.17 33.7305 216.144 32.5273C217.147 31.2956 218.493 30.1354 220.183 29.0469C222.503 27.5573 224.208 26.2253 225.296 25.0508C226.414 23.8763 226.972 22.487 226.972 20.8828C226.972 19.3073 226.414 18.0326 225.296 17.0586C224.208 16.056 222.847 15.5547 221.214 15.5547C220.097 15.5547 219.052 15.8125 218.078 16.3281C217.132 16.8438 216.359 17.5742 215.757 18.5195C215.184 19.4648 214.884 20.5391 214.855 21.7422H199.73C199.787 17.5026 200.776 13.9792 202.695 11.1719C204.614 8.33594 207.178 6.25911 210.386 4.94141C213.623 3.59505 217.261 2.92188 221.3 2.92188C225.654 2.92188 229.507 3.56641 232.859 4.85547C236.239 6.14453 238.875 8.07813 240.765 10.6563C242.684 13.2057 243.644 16.3281 243.644 20.0234C243.644 23.4896 242.799 26.4115 241.109 28.7891C239.419 31.1667 236.97 33.2865 233.761 35.1484C231.384 36.5521 229.665 37.9987 228.605 39.4883C227.574 40.9779 227.058 42.9115 227.058 45.2891V46.6641H213.136V45.2891ZM220.269 66.9453C218.751 66.9453 217.347 66.5729 216.058 65.8281C214.769 65.0833 213.752 64.0807 213.007 62.8203C212.263 61.5313 211.904 60.1276 211.933 58.6094C211.904 57.1198 212.263 55.7448 213.007 54.4844C213.752 53.224 214.769 52.2214 216.058 51.4766C217.347 50.7318 218.751 50.3594 220.269 50.3594C221.701 50.3594 223.062 50.7318 224.351 51.4766C225.64 52.2214 226.671 53.224 227.445 54.4844C228.218 55.7448 228.605 57.1198 228.605 58.6094C228.605 60.1276 228.218 61.5313 227.445 62.8203C226.671 64.0807 225.64 65.0833 224.351 65.8281C223.062 66.5729 221.701 66.9453 220.269 66.9453ZM263.045 45.2891C263.045 41.9948 263.303 39.3451 263.819 37.3398C264.334 35.3346 265.079 33.7305 266.053 32.5273C267.056 31.2956 268.402 30.1354 270.092 29.0469C272.413 27.5573 274.117 26.2253 275.205 25.0508C276.323 23.8763 276.881 22.487 276.881 20.8828C276.881 19.3073 276.323 18.0326 275.205 17.0586C274.117 16.056 272.756 15.5547 271.123 15.5547C270.006 15.5547 268.961 15.8125 267.987 16.3281C267.041 16.8438 266.268 17.5742 265.666 18.5195C265.093 19.4648 264.793 20.5391 264.764 21.7422H249.639C249.696 17.5026 250.685 13.9792 252.604 11.1719C254.523 8.33594 257.087 6.25911 260.295 4.94141C263.532 3.59505 267.17 2.92188 271.209 2.92188C275.564 2.92188 279.416 3.56641 282.768 4.85547C286.148 6.14453 288.784 8.07813 290.674 10.6563C292.593 13.2057 293.553 16.3281 293.553 20.0234C293.553 23.4896 292.708 26.4115 291.018 28.7891C289.328 31.1667 286.879 33.2865 283.67 35.1484C281.293 36.5521 279.574 37.9987 278.514 39.4883C277.483 40.9779 276.967 42.9115 276.967 45.2891V46.6641H263.045V45.2891ZM270.178 66.9453C268.66 66.9453 267.256 66.5729 265.967 65.8281C264.678 65.0833 263.661 64.0807 262.916 62.8203C262.172 61.5313 261.814 60.1276 261.842 58.6094C261.814 57.1198 262.172 55.7448 262.916 54.4844C263.661 53.224 264.678 52.2214 265.967 51.4766C267.256 50.7318 268.66 50.3594 270.178 50.3594C271.61 50.3594 272.971 50.7318 274.26 51.4766C275.549 52.2214 276.58 53.224 277.354 54.4844C278.127 55.7448 278.514 57.1198 278.514 58.6094C278.514 60.1276 278.127 61.5313 277.354 62.8203C276.58 64.0807 275.549 65.0833 274.26 65.8281C272.971 66.5729 271.61 66.9453 270.178 66.9453ZM312.954 45.2891C312.954 41.9948 313.212 39.3451 313.728 37.3398C314.243 35.3346 314.988 33.7305 315.962 32.5273C316.965 31.2956 318.311 30.1354 320.001 29.0469C322.322 27.5573 324.026 26.2253 325.115 25.0508C326.232 23.8763 326.79 22.487 326.79 20.8828C326.79 19.3073 326.232 18.0326 325.115 17.0586C324.026 16.056 322.665 15.5547 321.033 15.5547C319.915 15.5547 318.87 15.8125 317.896 16.3281C316.95 16.8438 316.177 17.5742 315.575 18.5195C315.003 19.4648 314.702 20.5391 314.673 21.7422H299.548C299.605 17.5026 300.594 13.9792 302.513 11.1719C304.432 8.33594 306.996 6.25911 310.204 4.94141C313.441 3.59505 317.079 2.92188 321.118 2.92188C325.473 2.92188 329.325 3.56641 332.677 4.85547C336.057 6.14453 338.693 8.07813 340.583 10.6563C342.503 13.2057 343.462 16.3281 343.462 20.0234C343.462 23.4896 342.617 26.4115 340.927 28.7891C339.237 31.1667 336.788 33.2865 333.579 35.1484C331.202 36.5521 329.483 37.9987 328.423 39.4883C327.392 40.9779 326.876 42.9115 326.876 45.2891V46.6641L312.954 46.6641V45.2891ZM320.087 66.9453C318.569 66.9453 317.165 66.5729 315.876 65.8281C314.587 65.0833 313.57 64.0807 312.825 62.8203C312.081 61.5313 311.723 60.1276 311.751 58.6094C311.723 57.1198 312.081 55.7448 312.825 54.4844C313.57 53.224 314.587 52.2214 315.876 51.4766C317.165 50.7318 318.569 50.3594 320.087 50.3594C321.519 50.3594 322.88 50.7318 324.169 51.4766C325.458 52.2214 326.49 53.224 327.263 54.4844C328.036 55.7448 328.423 57.1198 328.423 58.6094C328.423 60.1276 328.036 61.5313 327.263 62.8203C326.49 64.0807 325.458 65.0833 324.169 65.8281C322.88 66.5729 321.519 66.9453 320.087 66.9453ZM13.5 117.289C13.5 113.995 13.7578 111.345 14.2734 109.34C14.7891 107.335 15.5339 105.73 16.5078 104.527C17.5104 103.296 18.8568 102.135 20.5469 101.047C22.8672 99.5573 24.5716 98.2253 25.6602 97.0508C26.7773 95.8763 27.3359 94.487 27.3359 92.8828C27.3359 91.3073 26.7773 90.0326 25.6602 89.0586C24.5716 88.056 23.2109 87.5547 21.5781 87.5547C20.4609 87.5547 19.4154 87.8125 18.4414 88.3281C17.4961 88.8438 16.7227 89.5742 16.1211 90.5195C15.5482 91.4648 15.2474 92.5391 15.2187 93.7422H0.09375C0.151042 89.5026 1.13932 85.9792 3.05859 83.1719C4.97786 80.3359 7.54167 78.2591 10.75 76.9414C13.987 75.5951 17.625 74.9219 21.6641 74.9219C26.0182 74.9219 29.8711 75.5664 33.2227 76.8555C36.6029 78.1445 39.2383 80.0781 41.1289 82.6562C43.0482 85.2057 44.0078 88.3281 44.0078 92.0234C44.0078 95.4896 43.1628 98.4115 41.4727 100.789C39.7826 103.167 37.3333 105.286 34.125 107.148C31.7474 108.552 30.0286 109.999 28.9687 111.488C27.9375 112.978 27.4219 114.911 27.4219 117.289V118.664H13.5V117.289ZM20.6328 138.945C19.1146 138.945 17.7109 138.573 16.4219 137.828C15.1328 137.083 14.1159 136.081 13.3711 134.82C12.6263 133.531 12.2682 132.128 12.2969 130.609C12.2682 129.12 12.6263 127.745 13.3711 126.484C14.1159 125.224 15.1328 124.221 16.4219 123.477C17.7109 122.732 19.1146 122.359 20.6328 122.359C22.0651 122.359 23.4258 122.732 24.7148 123.477C26.0039 124.221 27.0352 125.224 27.8086 126.484C28.582 127.745 28.9687 129.12 28.9687 130.609C28.9687 132.128 28.582 133.531 27.8086 134.82C27.0352 136.081 26.0039 137.083 24.7148 137.828C23.4258 138.573 22.0651 138.945 20.6328 138.945ZM63.4091 117.289C63.4091 113.995 63.6669 111.345 64.1825 109.34C64.6981 107.335 65.4429 105.73 66.4169 104.527C67.4195 103.296 68.7658 102.135 70.4559 101.047C72.7762 99.5573 74.4807 98.2253 75.5692 97.0508C76.6864 95.8763 77.245 94.487 77.245 92.8828C77.245 91.3073 76.6864 90.0326 75.5692 89.0586C74.4807 88.056 73.12 87.5547 71.4872 87.5547C70.37 87.5547 69.3244 87.8125 68.3505 88.3281C67.4052 88.8438 66.6317 89.5742 66.0302 90.5195C65.4572 91.4648 65.1565 92.5391 65.1278 93.7422H50.0028C50.0601 89.5026 51.0484 85.9792 52.9677 83.1719C54.8869 80.3359 57.4507 78.2591 60.6591 76.9414C63.896 75.5951 67.5341 74.9219 71.5731 74.9219C75.9273 74.9219 79.7802 75.5664 83.1317 76.8555C86.5119 78.1445 89.1473 80.0781 91.038 82.6562C92.9572 85.2057 93.9169 88.3281 93.9169 92.0234C93.9169 95.4896 93.0718 98.4115 91.3817 100.789C89.6916 103.167 87.2424 105.286 84.0341 107.148C81.6565 108.552 79.9377 109.999 78.8778 111.488C77.8466 112.978 77.3309 114.911 77.3309 117.289V118.664H63.4091V117.289ZM70.5419 138.945C69.0236 138.945 67.62 138.573 66.3309 137.828C65.0419 137.083 64.0249 136.081 63.2802 134.82C62.5354 133.531 62.1773 132.128 62.2059 130.609C62.1773 129.12 62.5354 127.745 63.2802 126.484C64.0249 125.224 65.0419 124.221 66.3309 123.477C67.62 122.732 69.0236 122.359 70.5419 122.359C71.9742 122.359 73.3348 122.732 74.6239 123.477C75.913 124.221 76.9442 125.224 77.7177 126.484C78.4911 127.745 78.8778 129.12 78.8778 130.609C78.8778 132.128 78.4911 133.531 77.7177 134.82C76.9442 136.081 75.913 137.083 74.6239 137.828C73.3348 138.573 71.9742 138.945 70.5419 138.945ZM113.318 117.289C113.318 113.995 113.576 111.345 114.092 109.34C114.607 107.335 115.352 105.73 116.326 104.527C117.329 103.296 118.675 102.135 120.365 101.047C122.685 99.5573 124.39 98.2253 125.478 97.0508C126.595 95.8763 127.154 94.487 127.154 92.8828C127.154 91.3073 126.595 90.0326 125.478 89.0586C124.39 88.056 123.029 87.5547 121.396 87.5547C120.279 87.5547 119.233 87.8125 118.26 88.3281C117.314 88.8438 116.541 89.5742 115.939 90.5195C115.366 91.4648 115.066 92.5391 115.037 93.7422H99.9119C99.9692 89.5026 100.957 85.9792 102.877 83.1719C104.796 80.3359 107.36 78.2591 110.568 76.9414C113.805 75.5951 117.443 74.9219 121.482 74.9219C125.836 74.9219 129.689 75.5664 133.041 76.8555C136.421 78.1445 139.056 80.0781 140.947 82.6563C142.866 85.2057 143.826 88.3281 143.826 92.0234C143.826 95.4896 142.981 98.4115 141.291 100.789C139.601 103.167 137.151 105.286 133.943 107.148C131.566 108.552 129.847 109.999 128.787 111.488C127.756 112.978 127.24 114.911 127.24 117.289V118.664L113.318 118.664V117.289ZM120.451 138.945C118.933 138.945 117.529 138.573 116.24 137.828C114.951 137.083 113.934 136.081 113.189 134.82C112.444 133.531 112.086 132.128 112.115 130.609C112.086 129.12 112.444 127.745 113.189 126.484C113.934 125.224 114.951 124.221 116.24 123.477C117.529 122.732 118.933 122.359 120.451 122.359C121.883 122.359 123.244 122.732 124.533 123.477C125.822 124.221 126.853 125.224 127.627 126.484C128.4 127.745 128.787 129.12 128.787 130.609C128.787 132.128 128.4 133.531 127.627 134.82C126.853 136.081 125.822 137.083 124.533 137.828C123.244 138.573 121.883 138.945 120.451 138.945ZM163.227 117.289C163.227 113.995 163.485 111.345 164.001 109.34C164.516 107.335 165.261 105.73 166.235 104.527C167.238 103.296 168.584 102.135 170.274 101.047C172.594 99.5573 174.299 98.2253 175.387 97.0508C176.505 95.8763 177.063 94.487 177.063 92.8828C177.063 91.3073 176.505 90.0326 175.387 89.0586C174.299 88.056 172.938 87.5547 171.305 87.5547C170.188 87.5547 169.143 87.8125 168.169 88.3281C167.223 88.8438 166.45 89.5742 165.848 90.5195C165.275 91.4648 164.975 92.5391 164.946 93.7422H149.821C149.878 89.5026 150.867 85.9792 152.786 83.1719C154.705 80.3359 157.269 78.2591 160.477 76.9414C163.714 75.5951 167.352 74.9219 171.391 74.9219C175.745 74.9219 179.598 75.5664 182.95 76.8555C186.33 78.1445 188.965 80.0781 190.856 82.6563C192.775 85.2057 193.735 88.3281 193.735 92.0234C193.735 95.4896 192.89 98.4115 191.2 100.789C189.51 103.167 187.061 105.286 183.852 107.148C181.475 108.552 179.756 109.999 178.696 111.488C177.665 112.978 177.149 114.911 177.149 117.289V118.664H163.227V117.289ZM170.36 138.945C168.842 138.945 167.438 138.573 166.149 137.828C164.86 137.083 163.843 136.081 163.098 134.82C162.353 133.531 161.995 132.128 162.024 130.609C161.995 129.12 162.353 127.745 163.098 126.484C163.843 125.224 164.86 124.221 166.149 123.477C167.438 122.732 168.842 122.359 170.36 122.359C171.792 122.359 173.153 122.732 174.442 123.477C175.731 124.221 176.762 125.224 177.536 126.484C178.309 127.745 178.696 129.12 178.696 130.609C178.696 132.128 178.309 133.531 177.536 134.82C176.762 136.081 175.731 137.083 174.442 137.828C173.153 138.573 171.792 138.945 170.36 138.945ZM213.136 117.289C213.136 113.995 213.394 111.345 213.91 109.34C214.425 107.335 215.17 105.73 216.144 104.527C217.147 103.296 218.493 102.135 220.183 101.047C222.503 99.5573 224.208 98.2253 225.296 97.0508C226.414 95.8763 226.972 94.487 226.972 92.8828C226.972 91.3073 226.414 90.0326 225.296 89.0586C224.208 88.056 222.847 87.5547 221.214 87.5547C220.097 87.5547 219.052 87.8125 218.078 88.3281C217.132 88.8438 216.359 89.5742 215.757 90.5195C215.184 91.4648 214.884 92.5391 214.855 93.7422H199.73C199.787 89.5026 200.776 85.9792 202.695 83.1719C204.614 80.3359 207.178 78.2591 210.386 76.9414C213.623 75.5951 217.261 74.9219 221.3 74.9219C225.654 74.9219 229.507 75.5664 232.859 76.8555C236.239 78.1445 238.875 80.0781 240.765 82.6563C242.684 85.2057 243.644 88.3281 243.644 92.0234C243.644 95.4896 242.799 98.4115 241.109 100.789C239.419 103.167 236.97 105.286 233.761 107.148C231.384 108.552 229.665 109.999 228.605 111.488C227.574 112.978 227.058 114.911 227.058 117.289V118.664H213.136V117.289ZM220.269 138.945C218.751 138.945 217.347 138.573 216.058 137.828C214.769 137.083 213.752 136.081 213.007 134.82C212.263 133.531 211.904 132.128 211.933 130.609C211.904 129.12 212.263 127.745 213.007 126.484C213.752 125.224 214.769 124.221 216.058 123.477C217.347 122.732 218.751 122.359 220.269 122.359C221.701 122.359 223.062 122.732 224.351 123.477C225.64 124.221 226.671 125.224 227.445 126.484C228.218 127.745 228.605 129.12 228.605 130.609C228.605 132.128 228.218 133.531 227.445 134.82C226.671 136.081 225.64 137.083 224.351 137.828C223.062 138.573 221.701 138.945 220.269 138.945ZM263.045 117.289C263.045 113.995 263.303 111.345 263.819 109.34C264.334 107.335 265.079 105.73 266.053 104.527C267.056 103.296 268.402 102.135 270.092 101.047C272.413 99.5573 274.117 98.2253 275.205 97.0508C276.323 95.8763 276.881 94.487 276.881 92.8828C276.881 91.3073 276.323 90.0326 275.205 89.0586C274.117 88.056 272.756 87.5547 271.123 87.5547C270.006 87.5547 268.961 87.8125 267.987 88.3281C267.041 88.8438 266.268 89.5742 265.666 90.5195C265.093 91.4648 264.793 92.5391 264.764 93.7422H249.639C249.696 89.5026 250.685 85.9792 252.604 83.1719C254.523 80.3359 257.087 78.2591 260.295 76.9414C263.532 75.5951 267.17 74.9219 271.209 74.9219C275.564 74.9219 279.416 75.5664 282.768 76.8555C286.148 78.1445 288.784 80.0781 290.674 82.6563C292.593 85.2057 293.553 88.3281 293.553 92.0234C293.553 95.4896 292.708 98.4115 291.018 100.789C289.328 103.167 286.879 105.286 283.67 107.148C281.293 108.552 279.574 109.999 278.514 111.488C277.483 112.978 276.967 114.911 276.967 117.289V118.664H263.045V117.289ZM270.178 138.945C268.66 138.945 267.256 138.573 265.967 137.828C264.678 137.083 263.661 136.081 262.916 134.82C262.172 133.531 261.814 132.128 261.842 130.609C261.814 129.12 262.172 127.745 262.916 126.484C263.661 125.224 264.678 124.221 265.967 123.477C267.256 122.732 268.66 122.359 270.178 122.359C271.61 122.359 272.971 122.732 274.26 123.477C275.549 124.221 276.58 125.224 277.354 126.484C278.127 127.745 278.514 129.12 278.514 130.609C278.514 132.128 278.127 133.531 277.354 134.82C276.58 136.081 275.549 137.083 274.26 137.828C272.971 138.573 271.61 138.945 270.178 138.945ZM312.954 117.289C312.954 113.995 313.212 111.345 313.728 109.34C314.243 107.335 314.988 105.73 315.962 104.527C316.965 103.296 318.311 102.135 320.001 101.047C322.322 99.5573 324.026 98.2253 325.115 97.0508C326.232 95.8763 326.79 94.487 326.79 92.8828C326.79 91.3073 326.232 90.0326 325.115 89.0586C324.026 88.056 322.665 87.5547 321.033 87.5547C319.915 87.5547 318.87 87.8125 317.896 88.3281C316.95 88.8438 316.177 89.5742 315.575 90.5195C315.003 91.4648 314.702 92.5391 314.673 93.7422H299.548C299.605 89.5026 300.594 85.9792 302.513 83.1719C304.432 80.3359 306.996 78.2591 310.204 76.9414C313.441 75.5951 317.079 74.9219 321.118 74.9219C325.473 74.9219 329.325 75.5664 332.677 76.8555C336.057 78.1445 338.693 80.0781 340.583 82.6563C342.503 85.2057 343.462 88.3281 343.462 92.0234C343.462 95.4896 342.617 98.4115 340.927 100.789C339.237 103.167 336.788 105.286 333.579 107.148C331.202 108.552 329.483 109.999 328.423 111.488C327.392 112.978 326.876 114.911 326.876 117.289V118.664H312.954V117.289ZM320.087 138.945C318.569 138.945 317.165 138.573 315.876 137.828C314.587 137.083 313.57 136.081 312.825 134.82C312.081 133.531 311.723 132.128 311.751 130.609C311.723 129.12 312.081 127.745 312.825 126.484C313.57 125.224 314.587 124.221 315.876 123.477C317.165 122.732 318.569 122.359 320.087 122.359C321.519 122.359 322.88 122.732 324.169 123.477C325.458 124.221 326.49 125.224 327.263 126.484C328.036 127.745 328.423 129.12 328.423 130.609C328.423 132.128 328.036 133.531 327.263 134.82C326.49 136.081 325.458 137.083 324.169 137.828C322.88 138.573 321.519 138.945 320.087 138.945ZM13.5 189.289C13.5 185.995 13.7578 183.345 14.2734 181.34C14.7891 179.335 15.5339 177.73 16.5078 176.527C17.5104 175.296 18.8568 174.135 20.5469 173.047C22.8672 171.557 24.5716 170.225 25.6602 169.051C26.7773 167.876 27.3359 166.487 27.3359 164.883C27.3359 163.307 26.7773 162.033 25.6602 161.059C24.5716 160.056 23.2109 159.555 21.5781 159.555C20.4609 159.555 19.4154 159.812 18.4414 160.328C17.4961 160.844 16.7227 161.574 16.1211 162.52C15.5482 163.465 15.2474 164.539 15.2187 165.742H0.09375C0.151042 161.503 1.13932 157.979 3.05859 155.172C4.97786 152.336 7.54167 150.259 10.75 148.941C13.987 147.595 17.625 146.922 21.6641 146.922C26.0182 146.922 29.8711 147.566 33.2227 148.855C36.6029 150.145 39.2383 152.078 41.1289 154.656C43.0482 157.206 44.0078 160.328 44.0078 164.023C44.0078 167.49 43.1628 170.411 41.4727 172.789C39.7826 175.167 37.3333 177.286 34.125 179.148C31.7474 180.552 30.0286 181.999 28.9687 183.488C27.9375 184.978 27.4219 186.911 27.4219 189.289V190.664H13.5V189.289ZM20.6328 210.945C19.1146 210.945 17.7109 210.573 16.4219 209.828C15.1328 209.083 14.1159 208.081 13.3711 206.82C12.6263 205.531 12.2682 204.128 12.2969 202.609C12.2682 201.12 12.6263 199.745 13.3711 198.484C14.1159 197.224 15.1328 196.221 16.4219 195.477C17.7109 194.732 19.1146 194.359 20.6328 194.359C22.0651 194.359 23.4258 194.732 24.7148 195.477C26.0039 196.221 27.0352 197.224 27.8086 198.484C28.582 199.745 28.9687 201.12 28.9687 202.609C28.9687 204.128 28.582 205.531 27.8086 206.82C27.0352 208.081 26.0039 209.083 24.7148 209.828C23.4258 210.573 22.0651 210.945 20.6328 210.945ZM63.4091 189.289C63.4091 185.995 63.6669 183.345 64.1825 181.34C64.6981 179.335 65.4429 177.73 66.4169 176.527C67.4195 175.296 68.7658 174.135 70.4559 173.047C72.7762 171.557 74.4807 170.225 75.5692 169.051C76.6864 167.876 77.245 166.487 77.245 164.883C77.245 163.307 76.6864 162.033 75.5692 161.059C74.4807 160.056 73.12 159.555 71.4872 159.555C70.37 159.555 69.3244 159.812 68.3505 160.328C67.4052 160.844 66.6317 161.574 66.0302 162.52C65.4572 163.465 65.1565 164.539 65.1278 165.742H50.0028C50.0601 161.503 51.0484 157.979 52.9677 155.172C54.8869 152.336 57.4507 150.259 60.6591 148.941C63.896 147.595 67.5341 146.922 71.5731 146.922C75.9273 146.922 79.7802 147.566 83.1317 148.855C86.5119 150.145 89.1473 152.078 91.038 154.656C92.9572 157.206 93.9169 160.328 93.9169 164.023C93.9169 167.49 93.0718 170.411 91.3817 172.789C89.6916 175.167 87.2424 177.286 84.0341 179.148C81.6565 180.552 79.9377 181.999 78.8778 183.488C77.8466 184.978 77.3309 186.911 77.3309 189.289V190.664H63.4091V189.289ZM70.5419 210.945C69.0236 210.945 67.62 210.573 66.3309 209.828C65.0419 209.083 64.0249 208.081 63.2802 206.82C62.5354 205.531 62.1773 204.128 62.2059 202.609C62.1773 201.12 62.5354 199.745 63.2802 198.484C64.0249 197.224 65.0419 196.221 66.3309 195.477C67.62 194.732 69.0236 194.359 70.5419 194.359C71.9742 194.359 73.3348 194.732 74.6239 195.477C75.913 196.221 76.9442 197.224 77.7177 198.484C78.4911 199.745 78.8778 201.12 78.8778 202.609C78.8778 204.128 78.4911 205.531 77.7177 206.82C76.9442 208.081 75.913 209.083 74.6239 209.828C73.3348 210.573 71.9742 210.945 70.5419 210.945ZM113.318 189.289C113.318 185.995 113.576 183.345 114.092 181.34C114.607 179.335 115.352 177.73 116.326 176.527C117.329 175.296 118.675 174.135 120.365 173.047C122.685 171.557 124.39 170.225 125.478 169.051C126.595 167.876 127.154 166.487 127.154 164.883C127.154 163.307 126.595 162.033 125.478 161.059C124.39 160.056 123.029 159.555 121.396 159.555C120.279 159.555 119.233 159.812 118.26 160.328C117.314 160.844 116.541 161.574 115.939 162.52C115.366 163.465 115.066 164.539 115.037 165.742H99.9119C99.9692 161.503 100.957 157.979 102.877 155.172C104.796 152.336 107.36 150.259 110.568 148.941C113.805 147.595 117.443 146.922 121.482 146.922C125.836 146.922 129.689 147.566 133.041 148.855C136.421 150.145 139.056 152.078 140.947 154.656C142.866 157.206 143.826 160.328 143.826 164.023C143.826 167.49 142.981 170.411 141.291 172.789C139.601 175.167 137.151 177.286 133.943 179.148C131.566 180.552 129.847 181.999 128.787 183.488C127.756 184.978 127.24 186.911 127.24 189.289V190.664H113.318V189.289ZM120.451 210.945C118.933 210.945 117.529 210.573 116.24 209.828C114.951 209.083 113.934 208.081 113.189 206.82C112.444 205.531 112.086 204.128 112.115 202.609C112.086 201.12 112.444 199.745 113.189 198.484C113.934 197.224 114.951 196.221 116.24 195.477C117.529 194.732 118.933 194.359 120.451 194.359C121.883 194.359 123.244 194.732 124.533 195.477C125.822 196.221 126.853 197.224 127.627 198.484C128.4 199.745 128.787 201.12 128.787 202.609C128.787 204.128 128.4 205.531 127.627 206.82C126.853 208.081 125.822 209.083 124.533 209.828C123.244 210.573 121.883 210.945 120.451 210.945ZM163.227 189.289C163.227 185.995 163.485 183.345 164.001 181.34C164.516 179.335 165.261 177.73 166.235 176.527C167.238 175.296 168.584 174.135 170.274 173.047C172.594 171.557 174.299 170.225 175.387 169.051C176.505 167.876 177.063 166.487 177.063 164.883C177.063 163.307 176.505 162.033 175.387 161.059C174.299 160.056 172.938 159.555 171.305 159.555C170.188 159.555 169.143 159.812 168.169 160.328C167.223 160.844 166.45 161.574 165.848 162.52C165.275 163.465 164.975 164.539 164.946 165.742H149.821C149.878 161.503 150.867 157.979 152.786 155.172C154.705 152.336 157.269 150.259 160.477 148.941C163.714 147.595 167.352 146.922 171.391 146.922C175.745 146.922 179.598 147.566 182.95 148.855C186.33 150.145 188.965 152.078 190.856 154.656C192.775 157.206 193.735 160.328 193.735 164.023C193.735 167.49 192.89 170.411 191.2 172.789C189.51 175.167 187.061 177.286 183.852 179.148C181.475 180.552 179.756 181.999 178.696 183.488C177.665 184.978 177.149 186.911 177.149 189.289V190.664H163.227V189.289ZM170.36 210.945C168.842 210.945 167.438 210.573 166.149 209.828C164.86 209.083 163.843 208.081 163.098 206.82C162.353 205.531 161.995 204.128 162.024 202.609C161.995 201.12 162.353 199.745 163.098 198.484C163.843 197.224 164.86 196.221 166.149 195.477C167.438 194.732 168.842 194.359 170.36 194.359C171.792 194.359 173.153 194.732 174.442 195.477C175.731 196.221 176.762 197.224 177.536 198.484C178.309 199.745 178.696 201.12 178.696 202.609C178.696 204.128 178.309 205.531 177.536 206.82C176.762 208.081 175.731 209.083 174.442 209.828C173.153 210.573 171.792 210.945 170.36 210.945ZM213.136 189.289C213.136 185.995 213.394 183.345 213.91 181.34C214.425 179.335 215.17 177.73 216.144 176.527C217.147 175.296 218.493 174.135 220.183 173.047C222.503 171.557 224.208 170.225 225.296 169.051C226.414 167.876 226.972 166.487 226.972 164.883C226.972 163.307 226.414 162.033 225.296 161.059C224.208 160.056 222.847 159.555 221.214 159.555C220.097 159.555 219.052 159.812 218.078 160.328C217.132 160.844 216.359 161.574 215.757 162.52C215.184 163.465 214.884 164.539 214.855 165.742H199.73C199.787 161.503 200.776 157.979 202.695 155.172C204.614 152.336 207.178 150.259 210.386 148.941C213.623 147.595 217.261 146.922 221.3 146.922C225.654 146.922 229.507 147.566 232.859 148.855C236.239 150.145 238.875 152.078 240.765 154.656C242.684 157.206 243.644 160.328 243.644 164.023C243.644 167.49 242.799 170.411 241.109 172.789C239.419 175.167 236.97 177.286 233.761 179.148C231.384 180.552 229.665 181.999 228.605 183.488C227.574 184.978 227.058 186.911 227.058 189.289V190.664H213.136V189.289ZM220.269 210.945C218.751 210.945 217.347 210.573 216.058 209.828C214.769 209.083 213.752 208.081 213.007 206.82C212.263 205.531 211.904 204.128 211.933 202.609C211.904 201.12 212.263 199.745 213.007 198.484C213.752 197.224 214.769 196.221 216.058 195.477C217.347 194.732 218.751 194.359 220.269 194.359C221.701 194.359 223.062 194.732 224.351 195.477C225.64 196.221 226.671 197.224 227.445 198.484C228.218 199.745 228.605 201.12 228.605 202.609C228.605 204.128 228.218 205.531 227.445 206.82C226.671 208.081 225.64 209.083 224.351 209.828C223.062 210.573 221.701 210.945 220.269 210.945ZM263.045 189.289C263.045 185.995 263.303 183.345 263.819 181.34C264.334 179.335 265.079 177.73 266.053 176.527C267.056 175.296 268.402 174.135 270.092 173.047C272.413 171.557 274.117 170.225 275.205 169.051C276.323 167.876 276.881 166.487 276.881 164.883C276.881 163.307 276.323 162.033 275.205 161.059C274.117 160.056 272.756 159.555 271.123 159.555C270.006 159.555 268.961 159.813 267.987 160.328C267.041 160.844 266.268 161.574 265.666 162.52C265.093 163.465 264.793 164.539 264.764 165.742L249.639 165.742C249.696 161.503 250.685 157.979 252.604 155.172C254.523 152.336 257.087 150.259 260.295 148.941C263.532 147.595 267.17 146.922 271.209 146.922C275.564 146.922 279.416 147.566 282.768 148.855C286.148 150.145 288.784 152.078 290.674 154.656C292.593 157.206 293.553 160.328 293.553 164.023C293.553 167.49 292.708 170.411 291.018 172.789C289.328 175.167 286.879 177.286 283.67 179.148C281.293 180.552 279.574 181.999 278.514 183.488C277.483 184.978 276.967 186.911 276.967 189.289V190.664H263.045V189.289ZM270.178 210.945C268.66 210.945 267.256 210.573 265.967 209.828C264.678 209.083 263.661 208.081 262.916 206.82C262.172 205.531 261.814 204.128 261.842 202.609C261.814 201.12 262.172 199.745 262.916 198.484C263.661 197.224 264.678 196.221 265.967 195.477C267.256 194.732 268.66 194.359 270.178 194.359C271.61 194.359 272.971 194.732 274.26 195.477C275.549 196.221 276.58 197.224 277.354 198.484C278.127 199.745 278.514 201.12 278.514 202.609C278.514 204.128 278.127 205.531 277.354 206.82C276.58 208.081 275.549 209.083 274.26 209.828C272.971 210.573 271.61 210.945 270.178 210.945ZM312.954 189.289C312.954 185.995 313.212 183.345 313.728 181.34C314.243 179.335 314.988 177.73 315.962 176.527C316.965 175.296 318.311 174.135 320.001 173.047C322.322 171.557 324.026 170.225 325.115 169.051C326.232 167.876 326.79 166.487 326.79 164.883C326.79 163.307 326.232 162.033 325.115 161.059C324.026 160.056 322.665 159.555 321.033 159.555C319.915 159.555 318.87 159.813 317.896 160.328C316.95 160.844 316.177 161.574 315.575 162.52C315.003 163.465 314.702 164.539 314.673 165.742H299.548C299.605 161.503 300.594 157.979 302.513 155.172C304.432 152.336 306.996 150.259 310.204 148.941C313.441 147.595 317.079 146.922 321.118 146.922C325.473 146.922 329.325 147.566 332.677 148.855C336.057 150.145 338.693 152.078 340.583 154.656C342.503 157.206 343.462 160.328 343.462 164.023C343.462 167.49 342.617 170.411 340.927 172.789C339.237 175.167 336.788 177.286 333.579 179.148C331.202 180.552 329.483 181.999 328.423 183.488C327.392 184.978 326.876 186.911 326.876 189.289V190.664H312.954V189.289ZM320.087 210.945C318.569 210.945 317.165 210.573 315.876 209.828C314.587 209.083 313.57 208.081 312.825 206.82C312.081 205.531 311.723 204.128 311.751 202.609C311.723 201.12 312.081 199.745 312.825 198.484C313.57 197.224 314.587 196.221 315.876 195.477C317.165 194.732 318.569 194.359 320.087 194.359C321.519 194.359 322.88 194.732 324.169 195.477C325.458 196.221 326.49 197.224 327.263 198.484C328.036 199.745 328.423 201.12 328.423 202.609C328.423 204.128 328.036 205.531 327.263 206.82C326.49 208.081 325.458 209.083 324.169 209.828C322.88 210.573 321.519 210.945 320.087 210.945Z"
      fill="#E8E8E8" />
    <path
      d="M163.227 45.2891C163.227 41.9948 163.485 39.3451 164.001 37.3398C164.516 35.3346 165.261 33.7305 166.235 32.5273C167.238 31.2956 168.584 30.1354 170.274 29.0469C172.594 27.5573 174.299 26.2253 175.387 25.0508C176.505 23.8763 177.063 22.487 177.063 20.8828C177.063 19.3073 176.505 18.0326 175.387 17.0586C174.299 16.056 172.938 15.5547 171.305 15.5547C170.188 15.5547 169.143 15.8125 168.169 16.3281C167.223 16.8438 166.45 17.5742 165.848 18.5195C165.275 19.4648 164.975 20.5391 164.946 21.7422L149.821 21.7422C149.878 17.5026 150.867 13.9792 152.786 11.1719C154.705 8.33594 157.269 6.25911 160.477 4.94141C163.714 3.59505 167.352 2.92188 171.391 2.92188C175.745 2.92188 179.598 3.56641 182.95 4.85547C186.33 6.14453 188.965 8.07813 190.856 10.6563C192.775 13.2057 193.735 16.3281 193.735 20.0234C193.735 23.4896 192.89 26.4115 191.2 28.7891C189.51 31.1667 187.061 33.2865 183.852 35.1484C181.475 36.5521 179.756 37.9987 178.696 39.4883C177.665 40.9779 177.149 42.9115 177.149 45.2891V46.6641H163.227V45.2891ZM170.36 66.9453C168.842 66.9453 167.438 66.5729 166.149 65.8281C164.86 65.0833 163.843 64.0807 163.098 62.8203C162.353 61.5313 161.995 60.1276 162.024 58.6094C161.995 57.1198 162.353 55.7448 163.098 54.4844C163.843 53.224 164.86 52.2214 166.149 51.4766C167.438 50.7318 168.842 50.3594 170.36 50.3594C171.792 50.3594 173.153 50.7318 174.442 51.4766C175.731 52.2214 176.762 53.224 177.536 54.4844C178.309 55.7448 178.696 57.1198 178.696 58.6094C178.696 60.1276 178.309 61.5313 177.536 62.8203C176.762 64.0807 175.731 65.0833 174.442 65.8281C173.153 66.5729 171.792 66.9453 170.36 66.9453Z"
      fill="#BA0407" />
    <path fill-rule="evenodd" clip-rule="evenodd"
      d="M148.394 77C143.937 77 141.197 79.4182 139.563 81.7555C138.775 82.8812 138.212 84.0252 137.813 84.8606C137.753 84.9873 137.698 85.102 137.648 85.2074C137.519 85.4795 137.42 85.6896 137.321 85.8827C137.247 86.0291 137.203 86.1034 137.188 86.1293L137.185 86.1343C135.807 87.8506 126.411 100.696 125.09 102.789C125.047 102.858 124.993 102.943 124.928 103.044L124.927 103.046L124.753 103.317C122.709 106.498 114.39 119.449 109.939 140.839C109.324 143.794 108.897 146.052 108.337 150.192C107.87 153.646 107.998 157.774 108.082 160.264C108.104 160.91 108.123 161.468 108.127 161.908C108.15 164.132 108.45 167.244 108.777 170.294C108.836 170.836 108.895 171.386 108.953 171.943C110.057 182.443 114.764 188.282 116.587 190.503C116.992 190.998 117.402 191.47 117.813 191.929C119.981 194.348 127.289 201.529 140.145 204.63C152.759 207.672 162.578 208.118 165.239 208.183C165.326 208.19 165.415 208.194 165.504 208.194H178.496C178.585 208.194 178.674 208.19 178.761 208.183C181.422 208.118 191.241 207.672 203.855 204.63C216.711 201.529 224.02 194.348 226.187 191.929C226.598 191.47 227.008 190.998 227.413 190.503C229.236 188.282 233.943 182.443 235.047 171.943C235.105 171.386 235.164 170.836 235.223 170.294C235.55 167.244 235.85 164.132 235.873 161.908C235.877 161.468 235.896 160.91 235.918 160.264C236.002 157.774 236.13 153.646 235.663 150.192C235.103 146.052 234.676 143.794 234.061 140.839C229.61 119.449 221.291 106.499 219.247 103.317L219.073 103.046C219.008 102.944 218.953 102.859 218.91 102.789C217.589 100.696 208.193 87.8506 206.815 86.1343L206.812 86.1292C206.797 86.1033 206.753 86.029 206.679 85.8827C206.58 85.6896 206.481 85.4795 206.352 85.2073C206.302 85.1019 206.247 84.9872 206.187 84.8606C205.788 84.0252 205.225 82.8812 204.437 81.7555C202.803 79.4182 200.063 77 195.606 77C193.595 77 191.496 77.4701 189.531 78.0634C187.548 78.6621 185.5 79.4508 183.594 80.1907L183.326 80.2945C181.476 81.0129 179.768 81.676 178.187 82.1744C176.503 82.7051 175.217 82.9635 174.284 82.9635H169.716C168.783 82.9635 167.497 82.7051 165.813 82.1744C164.232 81.6759 162.524 81.0129 160.674 80.2945L160.406 80.1907C158.5 79.4508 156.452 78.6621 154.469 78.0634C152.504 77.4701 150.405 77 148.394 77ZM180.122 87.5123C178.546 88.0093 176.868 88.4351 175.244 88.5603C175.087 88.5848 174.925 88.5976 174.761 88.5976H169.239C169.075 88.5976 168.913 88.5848 168.756 88.5603C167.132 88.4351 165.454 88.0093 163.878 87.5123C162.08 86.9457 160.179 86.2072 158.371 85.5051L158.036 85.3749C156.082 84.6165 154.231 83.9073 152.493 83.3826C150.737 82.8525 149.294 82.5745 148.158 82.5745C146.326 82.5745 145.248 83.4246 144.344 84.7179C143.861 85.4078 143.475 86.1697 143.094 86.9673L142.968 87.2323C142.825 87.534 142.669 87.8631 142.526 88.1441C142.351 88.4865 142.077 89.0028 141.705 89.4588C140.588 90.8282 131.077 103.836 129.89 105.716C129.85 105.78 129.798 105.861 129.736 105.958L129.567 106.221C127.643 109.208 119.691 121.556 115.418 142.09C114.821 144.959 114.417 147.092 113.875 151.102C113.482 154.004 113.582 157.381 113.663 159.889L113.668 160.034C113.691 160.754 113.712 161.426 113.718 162.036C113.739 163.954 114.001 166.733 114.334 169.843C114.394 170.402 114.456 170.982 114.519 171.584C115.452 180.461 119.374 185.235 120.783 186.95L120.849 187.031C121.188 187.444 121.54 187.85 121.912 188.265C123.587 190.135 129.936 196.455 141.288 199.193C155.438 202.606 165.895 202.62 165.895 202.62H178.105C178.105 202.62 188.562 202.606 202.712 199.193C214.064 196.455 220.413 190.135 222.088 188.265C222.46 187.85 222.812 187.444 223.151 187.031L223.217 186.95C224.626 185.235 228.548 180.461 229.481 171.584C229.544 170.984 229.606 170.404 229.666 169.846L229.666 169.843C229.999 166.732 230.261 163.954 230.281 162.036C230.288 161.386 230.312 160.663 230.337 159.889C230.418 157.381 230.518 154.004 230.125 151.102C229.583 147.092 229.179 144.959 228.582 142.09C224.309 121.556 216.357 109.208 214.433 106.221L214.424 106.208L214.264 105.958C214.202 105.861 214.15 105.78 214.11 105.716C212.923 103.836 203.412 90.8282 202.295 89.4588C201.923 89.0028 201.649 88.4865 201.474 88.1441C201.331 87.8631 201.175 87.534 201.032 87.2322L201.031 87.2294L200.906 86.9673C200.525 86.1697 200.139 85.4078 199.656 84.7179C198.752 83.4246 197.674 82.5745 195.842 82.5745C194.706 82.5745 193.263 82.8525 191.507 83.3826C189.769 83.9073 187.918 84.6165 185.964 85.3749L185.629 85.5051C183.821 86.2072 181.92 86.9457 180.122 87.5123Z"
      fill="#252525" />
    <path fill-rule="evenodd" clip-rule="evenodd"
      d="M180.122 87.5123C178.546 88.0093 176.868 88.4351 175.244 88.5603C175.087 88.5848 174.925 88.5976 174.761 88.5976H169.239C169.075 88.5976 168.913 88.5848 168.756 88.5603C167.132 88.4351 165.454 88.0093 163.878 87.5123C162.08 86.9457 160.179 86.2072 158.371 85.5051L158.036 85.3749C156.082 84.6165 154.231 83.9073 152.493 83.3826C150.737 82.8525 149.294 82.5745 148.158 82.5745C146.326 82.5745 145.248 83.4246 144.344 84.7179C143.861 85.4078 143.475 86.1697 143.094 86.9673L142.968 87.2323C142.825 87.534 142.669 87.8631 142.526 88.1441C142.351 88.4865 142.077 89.0028 141.705 89.4588C140.588 90.8282 131.077 103.836 129.89 105.716C129.85 105.78 129.798 105.861 129.736 105.958C129.686 106.036 129.63 106.123 129.567 106.221C127.643 109.208 119.691 121.556 115.418 142.09C114.821 144.959 114.417 147.092 113.875 151.102C113.482 154.004 113.582 157.381 113.663 159.889L113.668 160.034C113.691 160.754 113.712 161.426 113.718 162.036C113.739 163.954 114.001 166.733 114.334 169.843C114.394 170.402 114.456 170.982 114.519 171.584C115.452 180.461 119.374 185.235 120.783 186.95L120.849 187.031C121.188 187.444 121.54 187.85 121.912 188.265C123.587 190.135 129.936 196.455 141.288 199.193C155.438 202.606 165.895 202.62 165.895 202.62H178.105C178.105 202.62 188.562 202.606 202.712 199.193C214.064 196.455 220.413 190.135 222.088 188.265C222.46 187.85 222.812 187.444 223.151 187.031L223.217 186.95C224.626 185.235 228.548 180.461 229.481 171.584C229.544 170.984 229.606 170.404 229.666 169.846L229.666 169.843C229.999 166.732 230.261 163.954 230.281 162.036C230.288 161.386 230.312 160.663 230.337 159.889C230.418 157.381 230.518 154.004 230.125 151.102C229.583 147.092 229.179 144.959 228.582 142.09C224.309 121.556 216.357 109.208 214.433 106.221L214.424 106.208C214.365 106.115 214.312 106.032 214.264 105.958C214.202 105.861 214.15 105.78 214.11 105.716C212.923 103.836 203.412 90.8282 202.295 89.4588C201.923 89.0028 201.649 88.4865 201.474 88.1441C201.331 87.8631 201.175 87.534 201.032 87.2322L201.031 87.2294C200.988 87.1389 200.946 87.0508 200.906 86.9673C200.525 86.1697 200.139 85.4078 199.656 84.7179C198.752 83.4246 197.674 82.5745 195.842 82.5745C194.706 82.5745 193.263 82.8525 191.507 83.3826C189.769 83.9073 187.918 84.6165 185.964 85.3749L185.629 85.5051C183.821 86.2072 181.92 86.9457 180.122 87.5123ZM175.212 89.0953C176.82 88.9714 178.481 88.5498 180.042 88.0577C181.821 87.4967 183.704 86.7655 185.494 86.0704L185.826 85.9415C187.76 85.1906 189.593 84.4884 191.314 83.9689C193.052 83.4441 194.481 83.1688 195.606 83.1688C197.42 83.1688 198.487 84.0105 199.382 85.2909C199.86 85.974 200.243 86.7284 200.62 87.5181C200.657 87.5954 200.695 87.6766 200.735 87.7601L200.741 87.7742L200.744 87.7804C200.886 88.0792 201.041 88.405 201.182 88.6833C201.355 89.0223 201.627 89.5335 201.995 89.985C203.101 91.3408 212.518 104.219 213.693 106.081C213.733 106.144 213.784 106.225 213.846 106.321L213.911 106.422L214.013 106.581C215.917 109.538 223.791 121.764 228.022 142.095C228.613 144.936 229.013 147.048 229.55 151.018C229.938 153.891 229.84 157.235 229.759 159.718C229.734 160.485 229.711 161.2 229.704 161.843C229.685 163.743 229.425 166.494 229.095 169.573C229.036 170.127 228.975 170.701 228.912 171.297C227.988 180.086 224.105 184.813 222.71 186.511L222.644 186.591C222.309 187 221.96 187.402 221.592 187.813C219.934 189.664 213.648 195.922 202.408 198.633C188.398 202.012 178.045 202.026 178.045 202.026H165.955C165.955 202.026 155.602 202.012 141.592 198.633C130.352 195.922 124.066 189.664 122.408 187.813C122.04 187.402 121.691 187 121.356 186.591L121.29 186.511C119.895 184.813 116.012 180.086 115.088 171.297C115.025 170.701 114.964 170.127 114.905 169.573C114.575 166.494 114.315 163.743 114.296 161.843C114.289 161.24 114.268 160.574 114.245 159.861L114.241 159.718C114.16 157.235 114.062 153.891 114.45 151.018C114.987 147.048 115.387 144.936 115.978 142.095C120.209 121.764 128.082 109.539 129.987 106.581C130.049 106.485 130.105 106.398 130.154 106.321C130.216 106.225 130.267 106.144 130.307 106.081C131.482 104.219 140.899 91.3408 142.005 89.985C142.373 89.5335 142.645 89.0223 142.818 88.6833C142.959 88.4051 143.114 88.0792 143.256 87.7805C143.298 87.6903 143.341 87.6012 143.38 87.5181C143.757 86.7284 144.14 85.974 144.618 85.2909C145.513 84.0105 146.58 83.1688 148.394 83.1688C149.519 83.1688 150.948 83.4441 152.686 83.9689C154.407 84.4884 156.24 85.1906 158.174 85.9415L158.506 86.0704C160.296 86.7655 162.179 87.4967 163.958 88.0577C165.519 88.5497 167.18 88.9714 168.788 89.0953C168.944 89.1196 169.104 89.1322 169.267 89.1322H174.733C174.896 89.1322 175.056 89.1196 175.212 89.0953Z"
      fill="white" />
    <path
      d="M180.042 88.0577C178.481 88.5498 176.82 88.9714 175.212 89.0953C175.056 89.1196 174.896 89.1322 174.733 89.1322H169.267C169.104 89.1322 168.944 89.1196 168.788 89.0953C167.18 88.9714 165.519 88.5497 163.958 88.0577C162.179 87.4967 160.296 86.7655 158.506 86.0704L158.174 85.9415C156.24 85.1906 154.407 84.4884 152.686 83.9689C150.948 83.4441 149.519 83.1688 148.394 83.1688C146.58 83.1688 145.513 84.0105 144.618 85.2909C144.14 85.974 143.757 86.7284 143.38 87.5181L143.256 87.7805C143.114 88.0792 142.959 88.4051 142.818 88.6833C142.645 89.0223 142.373 89.5335 142.005 89.985C140.899 91.3408 131.482 104.219 130.307 106.081C130.267 106.144 130.216 106.225 130.154 106.321C130.105 106.398 130.049 106.485 129.987 106.581C128.082 109.539 120.209 121.764 115.978 142.095C115.387 144.936 114.987 147.048 114.45 151.018C114.062 153.891 114.16 157.235 114.241 159.718L114.245 159.861C114.268 160.574 114.289 161.24 114.296 161.843C114.315 163.743 114.575 166.494 114.905 169.573C114.964 170.127 115.025 170.701 115.088 171.297C116.012 180.086 119.895 184.813 121.29 186.511L121.356 186.591C121.691 187 122.04 187.402 122.408 187.813C124.066 189.664 130.352 195.922 141.592 198.633C155.602 202.012 165.955 202.026 165.955 202.026H178.045C178.045 202.026 188.398 202.012 202.408 198.633C213.648 195.922 219.934 189.664 221.592 187.813C221.96 187.402 222.309 187 222.644 186.591L222.71 186.511C224.105 184.813 227.988 180.086 228.912 171.297C228.975 170.701 229.036 170.127 229.095 169.573C229.425 166.494 229.685 163.743 229.704 161.843C229.711 161.2 229.734 160.485 229.759 159.718C229.84 157.235 229.938 153.891 229.55 151.018C229.013 147.048 228.613 144.936 228.022 142.095C223.791 121.764 215.917 109.538 214.013 106.581L213.911 106.422L213.846 106.321C213.784 106.225 213.733 106.144 213.693 106.081C212.518 104.219 203.101 91.3408 201.995 89.985C201.627 89.5335 201.355 89.0223 201.182 88.6833C201.041 88.405 200.886 88.0792 200.744 87.7804L200.741 87.7742L200.735 87.7601C200.695 87.6766 200.657 87.5954 200.62 87.5181C200.243 86.7284 199.86 85.974 199.382 85.2909C198.487 84.0105 197.42 83.1688 195.606 83.1688C194.481 83.1688 193.052 83.4441 191.314 83.9689C189.593 84.4884 187.76 85.1906 185.826 85.9415L185.494 86.0704C183.704 86.7655 181.821 87.4967 180.042 88.0577Z"
      fill="white" />
    <path
      d="M171.213 130.338C171.508 129.903 171.769 129.459 172.001 129.013C172.233 129.459 172.494 129.903 172.788 130.338C174.288 132.552 176.493 133.599 178.18 134.097C179.036 134.35 179.802 134.475 180.358 134.538C180.637 134.57 180.867 134.587 181.034 134.595C181.201 134.604 180.401 134.605 181.334 134.604C182.429 134.604 183.201 133.768 183.201 132.738C183.201 131.709 182.369 130.875 181.342 130.871L181.326 130.871C181.307 130.87 181.273 130.869 181.224 130.867C181.126 130.862 180.974 130.851 180.779 130.829C180.387 130.784 179.841 130.695 179.238 130.517C178.009 130.153 176.714 129.477 175.88 128.245C174.905 126.805 174.39 125.135 174.125 123.768C173.995 123.094 173.93 123.046 173.898 122.644C173.882 122.444 173.874 122.289 173.871 122.189C173.869 122.139 173.868 122.103 173.868 122.082L173.867 122.062C173.867 122.062 173.867 121.293 173.321 120.746C172.774 120.199 172.001 120.199 172.001 120.199C172.001 120.199 171.228 120.199 170.681 120.746C170.134 121.293 170.134 122.062 170.134 122.062L170.134 122.082C170.133 122.103 170.133 122.139 170.131 122.189C170.127 122.289 170.119 122.444 170.104 122.644C170.072 123.046 170.007 123.094 169.876 123.768C169.612 125.135 169.096 126.805 168.122 128.245C167.288 129.477 165.993 130.153 164.764 130.517C164.161 130.695 163.614 130.784 163.222 130.829C163.028 130.851 162.875 130.862 162.778 130.867C162.729 130.869 162.694 130.87 162.675 130.871L162.659 130.871C161.632 130.875 160.801 131.709 160.801 132.738C160.801 133.768 161.573 134.604 162.667 134.604C163.601 134.605 162.801 134.604 162.967 134.595C163.134 134.587 163.364 134.57 163.644 134.538C164.2 134.475 164.966 134.35 165.821 134.097C167.509 133.599 169.714 132.552 171.213 130.338Z"
      fill="#252525" />
    <path
      d="M155.6 121.8C155.6 124.451 153.451 126.6 150.8 126.6C148.149 126.6 146 124.451 146 121.8C146 119.149 148.149 117 150.8 117C153.451 117 155.6 119.149 155.6 121.8Z"
      fill="#252525" />
    <path
      d="M197.6 121.8C197.6 124.451 195.451 126.6 192.8 126.6C190.149 126.6 188 124.451 188 121.8C188 119.149 190.149 117 192.8 117C195.451 117 197.6 119.149 197.6 121.8Z"
      fill="#252525" />
    <path
      d="M146 109C147 112 154 113 158 112M187 113C190 113 192 112 193 111C194.448 109.552 197 109 199 110"
      stroke="#252525" stroke-width="3" stroke-linecap="round" />
  </g>
  <defs>
    <clipPath id="clip0_1164_8736">
      <rect width="345" height="214" fill="white" />
    </clipPath>
  </defs>
</svg>
  