<svg width="13" height="13" viewBox="0 0 13 13" fill="none" xmlns="http://www.w3.org/2000/svg">
  <path
    d="M5.9 9.5H7.1V7.1H9.5V5.9H7.1V3.5H5.9V5.9H3.5V7.1H5.9V9.5ZM6.5 12.5C5.67 12.5 4.89 12.345 4.16 12.035C3.43 11.715 2.795 11.285 2.255 10.745C1.715 10.205 1.285 9.57 0.965 8.84C0.655 8.11 0.5 7.33 0.5 6.5C0.5 5.67 0.655 4.89 0.965 4.16C1.285 3.43 1.715 2.795 2.255 2.255C2.795 1.715 3.43 1.29 4.16 0.98C4.89 0.66 5.67 0.5 6.5 0.5C7.33 0.5 8.11 0.66 8.84 0.98C9.57 1.29 10.205 1.715 10.745 2.255C11.285 2.795 11.71 3.43 12.02 4.16C12.34 4.89 12.5 5.67 12.5 6.5C12.5 7.33 12.34 8.11 12.02 8.84C11.71 9.57 11.285 10.205 10.745 10.745C10.205 11.285 9.57 11.715 8.84 12.035C8.11 12.345 7.33 12.5 6.5 12.5ZM6.5 11.3C7.84 11.3 8.975 10.835 9.905 9.905C10.835 8.975 11.3 7.84 11.3 6.5C11.3 5.16 10.835 4.025 9.905 3.095C8.975 2.165 7.84 1.7 6.5 1.7C5.16 1.7 4.025 2.165 3.095 3.095C2.165 4.025 1.7 5.16 1.7 6.5C1.7 7.84 2.165 8.975 3.095 9.905C4.025 10.835 5.16 11.3 6.5 11.3Z"
    fill="#B3B3B3" />
</svg>
  